<svg width="110" height="110" xmlns="http://www.w3.org/2000/svg" version="1.1">

 <g>
  <title>Layer 1</title>
  <path stroke="null" id="svg_16" fill="#110D07" d="m322.26425,47.61478c0.22683,0.11341 0.45365,0.22683 0.68735,0.34368c-1.36096,1.36096 -2.72191,2.72191 -4.12411,4.12411c-0.22683,-0.11341 -0.45365,-0.22683 -0.68735,-0.34368c0.42795,-0.49546 0.85795,-0.98915 1.28879,-1.4821c0.23923,-0.27512 0.47846,-0.55023 0.72494,-0.83368c0.66401,-0.70157 1.31974,-1.25808 2.11039,-1.80833z"/>
  <path stroke="null" id="svg_17" fill="#120D07" d="m590.33154,47.61478c0.22683,0.11341 0.45365,0.22683 0.68735,0.34368c-1.13413,1.13413 -2.26826,2.26826 -3.43676,3.43676c-0.22683,-0.11341 -0.45365,-0.22683 -0.68735,-0.34368c1.05812,-1.3302 2.06231,-2.41574 3.43676,-3.43676z"/>
  <path stroke="null" id="svg_18" fill="#130D08" d="m529.15721,46.24007c0.22683,0.11341 0.45365,0.22683 0.68735,0.34368c-1.13413,1.13413 -2.26826,2.26826 -3.43676,3.43676c0,-1.36663 0.47431,-1.74897 1.3747,-2.74941c0.77327,-0.62291 0.77327,-0.62291 1.3747,-1.03103z"/>
  <path stroke="null" id="svg_19" fill="#120D07" d="m554.58923,46.24007c0.22683,0.11341 0.45365,0.22683 0.68735,0.34368c-1.02072,1.02072 -2.04144,2.04144 -3.09308,3.09308c-0.22683,-0.11341 -0.45365,-0.22683 -0.68735,-0.34368c0.95885,-1.19857 1.80511,-2.23443 3.09308,-3.09308z"/>
  <g id="svg_21">
   <path stroke="null" id="svg_1" fill="#FE7A00" d="m74.31405,3.83905c0.34644,-0.00975 0.69288,-0.01949 1.04982,-0.02954c2.43851,0.36609 4.13204,2.44591 5.80121,4.11723c0.26066,0.25835 0.52132,0.5167 0.78987,0.78288c0.85761,0.8511 1.71262,1.70474 2.56735,2.55873c0.59637,0.59416 1.19279,1.18827 1.78926,1.78232c1.24804,1.24393 2.49465,2.48927 3.74044,3.73545c1.59671,1.59678 3.19811,3.18878 4.80075,4.7796c1.23238,1.22474 2.46162,2.45259 3.69001,3.68133c0.5892,0.58839 1.17951,1.17566 1.77095,1.76179c0.82599,0.81926 1.64751,1.64275 2.46806,2.46745c0.36743,0.36163 0.36743,0.36163 0.74228,0.73057c1.6033,1.62398 2.32333,2.85406 2.58003,5.16444c-0.30115,2.9111 -2.08228,4.77386 -4.09315,6.75723c-0.2589,0.26076 -0.5178,0.52152 -0.78455,0.79018c-0.8512,0.85547 -1.70726,1.70589 -2.56369,2.55613c-0.59516,0.59521 -1.19009,1.19065 -1.7848,1.78631c-1.24442,1.2449 -2.4912,2.48738 -3.73978,3.72811c-1.60048,1.59071 -3.19554,3.18673 -4.78895,4.78451c-1.22662,1.22901 -2.45576,2.45548 -3.68572,3.68116c-0.58923,0.58768 -1.17774,1.17607 -1.76552,1.7652c-0.82088,0.82188 -1.64501,1.64034 -2.47012,2.45796c-0.36349,0.36581 -0.36349,0.36581 -0.73432,0.73901c-1.64241,1.61767 -2.91921,2.53447 -5.29352,2.5724c-0.27556,0.00975 -0.55112,0.01949 -0.83503,0.02954c-2.53697,-0.43386 -4.2792,-2.33007 -6.01802,-4.08023c-0.25681,-0.25444 -0.51361,-0.50889 -0.7782,-0.77105c-0.84375,-0.83749 -1.68366,-1.6787 -2.52331,-2.5203c-0.58727,-0.58571 -1.17467,-1.17129 -1.7622,-1.75674c-1.22887,-1.22581 -2.45578,-2.45354 -3.68141,-3.68259c-1.5695,-1.57345 -3.14439,-3.14138 -4.72087,-4.70784c-1.2136,-1.20729 -2.42398,-2.41777 -3.63344,-3.62919c-0.57937,-0.57942 -1.1598,-1.15778 -1.74132,-1.73503c-0.81275,-0.80763 -1.62099,-1.61954 -2.42823,-2.43267c-0.23996,-0.23664 -0.47993,-0.47328 -0.72716,-0.71709c-1.67726,-1.70296 -2.67933,-3.1312 -2.94084,-5.57203c0.30796,-2.8743 1.76279,-4.40936 3.74746,-6.36312c0.26276,-0.26406 0.52551,-0.52812 0.79623,-0.80018c0.86592,-0.86846 1.73668,-1.73189 2.60772,-2.59521c0.6042,-0.60338 1.20815,-1.20702 1.81186,-1.8109c1.26415,-1.26308 2.53058,-2.52382 3.79881,-3.78281c1.62651,-1.61481 3.24842,-3.23412 4.86883,-4.85505c1.24604,-1.24585 2.49385,-2.4899 3.74228,-3.73335c0.5988,-0.59661 1.19719,-1.19364 1.79515,-1.7911c0.83494,-0.83345 1.6721,-1.66459 2.50995,-2.49511c0.24732,-0.24763 0.49463,-0.49525 0.74944,-0.75038c0.34327,-0.33887 0.34327,-0.33887 0.69348,-0.68459c0.19761,-0.19646 0.39522,-0.39292 0.59882,-0.59533c1.2715,-1.08105 2.3322,-1.29709 3.98409,-1.3181zm-4.08115,29.34134c-0.59789,1.19579 -0.49775,2.47304 -0.34368,3.78044c0.65441,1.41352 1.16856,1.94148 2.51313,2.72793c1.44992,0.41777 2.22625,0.44236 3.67304,0.02148c1.09099,-0.65059 1.88076,-1.42674 2.55609,-2.51313c0.36568,-1.74714 0.18122,-3.14708 -0.77327,-4.66111c-1.10345,-1.07193 -2.06916,-1.52388 -3.6086,-1.5895c-1.83157,0.03027 -2.84633,0.88935 -4.01671,2.23389z"/>
   <path stroke="null" id="svg_2" fill="#FE7A00" d="m9.62054,57.5308c0.3358,-0.00246 0.6716,-0.00492 1.01758,-0.00745c0.55461,-0.00139 0.55461,-0.00139 1.12043,-0.0028c0.38843,-0.00226 0.77686,-0.00452 1.17706,-0.00684c1.29015,-0.00679 2.58028,-0.01079 3.87043,-0.01422c0.65998,-0.0021 0.65998,-0.0021 1.33329,-0.00424c2.08879,-0.00643 4.17758,-0.01144 6.26638,-0.0143c2.4089,-0.00336 4.8177,-0.01239 7.22656,-0.02629c2.08787,-0.01163 4.1757,-0.01569 6.2636,-0.01708c0.88723,-0.00167 1.77445,-0.00567 2.66165,-0.01204c1.24233,-0.00836 2.48438,-0.00806 3.72673,-0.00567c0.36627,-0.0044 0.73253,-0.0088 1.10989,-0.01334c2.16992,0.0152 3.48736,0.25163 5.2492,1.54956c1.31963,1.6669 1.75893,2.94351 1.76665,5.03182c0.00196,0.3189 0.00392,0.6378 0.00595,0.96636c0.00057,0.52117 0.00057,0.52117 0.00117,1.05288c0.0017,0.36786 0.00341,0.73573 0.00517,1.11474c0.00502,1.21781 0.00736,2.43561 0.00926,3.65343c0.00198,0.84674 0.00396,1.69347 0.00594,2.54021c0.00361,1.7762 0.00562,3.55239 0.00682,5.32859c0.00188,2.27354 0.01014,4.547 0.01992,6.82052c0.00641,1.74956 0.00819,3.4991 0.00872,5.24867c0.00104,0.83802 0.00379,1.67604 0.00831,2.51404c0.00587,1.17384 0.00521,2.34751 0.00299,3.52136c0.00317,0.34467 0.00633,0.68934 0.0096,1.04445c-0.01274,2.14843 -0.11401,4.37126 -1.66213,6.03267c-1.74948,1.49829 -2.97456,1.58326 -5.20009,1.60255c-0.30585,0.00396 -0.6117,0.00791 -0.92682,0.01198c-1.01823,0.01267 -2.03648,0.02283 -3.05474,0.03282c-0.71208,0.00795 -1.42417,0.01599 -2.13625,0.02411c-1.49979,0.0167 -2.99958,0.03212 -4.4994,0.04671c-1.89935,0.0186 -3.79864,0.04059 -5.69794,0.06364c-1.47587,0.01746 -2.95175,0.03286 -4.42765,0.04772c-0.69851,0.0073 -1.39701,0.01523 -2.0955,0.02388c-3.7268,0.04507 -7.45196,0.03918 -11.17775,-0.06727c-0.3293,-0.00495 -0.6586,-0.0099 -0.99788,-0.015c-1.94196,-0.07074 -3.11669,-0.31735 -4.65222,-1.6193c-1.29013,-1.4296 -1.75985,-2.44716 -1.76665,-4.35995c-0.00196,-0.33099 -0.00392,-0.66197 -0.00595,-1.00299c-0.00038,-0.36262 -0.00077,-0.72524 -0.00117,-1.09885c-0.00171,-0.38233 -0.00341,-0.76465 -0.00517,-1.15856c-0.00503,-1.26762 -0.00736,-2.53522 -0.00926,-3.80284c-0.00198,-0.8797 -0.00396,-1.75939 -0.00594,-2.63909c-0.00315,-1.60983 -0.00531,-3.21966 -0.00635,-4.8295c-0.00154,-2.36726 -0.00757,-4.73445 -0.01753,-7.10168c-0.00833,-2.05209 -0.01098,-4.10415 -0.01158,-6.15626c-0.00104,-0.87216 -0.0038,-1.74431 -0.00831,-2.61646c-0.00586,-1.22011 -0.00522,-2.44005 -0.00299,-3.66016c-0.00317,-0.36053 -0.00633,-0.72107 -0.0096,-1.09253c0.01219,-2.12588 0.1717,-3.75327 1.69072,-5.38052c1.38582,-1.05975 2.08516,-1.53877 3.81481,-1.54745zm14.60273,21.78809c-0.51333,1.25481 -0.61754,2.37134 -0.38664,3.69452c0.82517,1.68207 1.6757,2.4591 3.43676,3.09308c1.33975,0.19538 1.92796,0.06973 3.13604,-0.55847c1.10831,-0.91556 1.74733,-1.57354 2.36277,-2.87829c0.14959,-1.69338 -0.0858,-2.77413 -1.15991,-4.10263c-1.38569,-1.08876 -2.17505,-1.55452 -3.97375,-1.50493c-1.5203,0.23323 -2.46184,1.11259 -3.41528,2.25672z"/>
  </g>
 </g>
</svg>